<svg width="200" height="220" viewBox="0 0 200 220" fill="none" xmlns="http://www.w3.org/2000/svg">
<rect x="22" y="24" width="157" height="172" rx="52" fill="#EFEFEF"/>
<rect x="13" y="13" width="174" height="194" rx="39" stroke="#F5F3ED" stroke-width="26"/>
<rect x="22" y="23" width="157" height="175" rx="38" stroke="#DDDBD6" stroke-width="28"/>
<path d="M97.1227 49.0246C98.8487 47.8101 101.151 47.8101 102.877 49.0246L142.508 76.9109C146.501 79.7204 144.513 86 139.631 86H60.3689C55.4866 86 53.4987 79.7204 57.4916 76.9109L97.1227 49.0246Z" fill="#D9D9D9"/>
<rect x="58" y="92" width="84" height="67" rx="5" fill="#D9D9D9"/>
<path d="M100.551 203.637C100.217 203.857 99.7833 203.857 99.4493 203.637L84.594 193.835C83.7661 193.288 84.1529 192 85.1447 192L114.855 192C115.847 192 116.234 193.288 115.406 193.835L100.551 203.637Z" fill="#CECDCC"/>
</svg>
