<svg width="200" height="220" viewBox="0 0 200 220" fill="none" xmlns="http://www.w3.org/2000/svg">
<rect x="22" y="24" width="157" height="172" rx="52" fill="#EFEFEF"/>
<rect x="13" y="13" width="174" height="194" rx="39" stroke="#F5F3ED" stroke-width="26"/>
<rect x="22" y="23" width="157" height="175" rx="38" stroke="#DDDBD6" stroke-width="28"/>
<rect x="129.996" y="54.1641" width="14" height="43.0624" rx="3" transform="rotate(19.9121 129.996 54.1641)" fill="#D9D9D9"/>
<path d="M119.69 106.18C119.113 106.617 118.277 106.314 118.113 105.609L115.638 94.9656C115.458 94.1929 116.207 93.5287 116.952 93.7989L128.145 97.8533C128.891 98.1235 129.041 99.113 128.408 99.5913L119.69 106.18Z" fill="#D9D9D9"/>
<rect x="57.0197" y="96.395" width="61.6916" height="71.1762" transform="rotate(-26.343 57.0197 96.395)" stroke="#D9D9D9" stroke-width="6"/>
<path d="M100.551 202.637C100.217 202.857 99.7833 202.857 99.4493 202.637L84.594 192.835C83.7661 192.288 84.1529 191 85.1447 191L114.855 191C115.847 191 116.234 192.288 115.406 192.835L100.551 202.637Z" fill="#CECDCC"/>
</svg>
