<svg width="200" height="220" viewBox="0 0 200 220" fill="none" xmlns="http://www.w3.org/2000/svg">
<rect x="22" y="24" width="157" height="172" rx="52" fill="#EFEFEF"/>
<rect x="13" y="13" width="174" height="194" rx="39" stroke="#F5F3ED" stroke-width="26"/>
<rect x="22" y="23" width="157" height="175" rx="38" stroke="#DDDBD6" stroke-width="28"/>
<ellipse cx="80" cy="77.5" rx="8" ry="7.5" fill="#D9D9D9"/>
<path d="M80 83L86.9282 95H73.0718L80 83Z" fill="#D9D9D9"/>
<rect x="59.5" y="59.5" width="81" height="102" stroke="#D9D9D9" stroke-width="7"/>
<line x1="72" y1="111" x2="116" y2="111" stroke="#D9D9D9" stroke-width="6"/>
<line x1="72" y1="141" x2="116" y2="141" stroke="#D9D9D9" stroke-width="6"/>
<line x1="72" y1="131" x2="116" y2="131" stroke="#D9D9D9" stroke-width="6"/>
<line x1="72" y1="121" x2="130" y2="121" stroke="#D9D9D9" stroke-width="6"/>
<path d="M100.551 203.637C100.217 203.857 99.7833 203.857 99.4493 203.637L84.594 193.835C83.7661 193.288 84.1529 192 85.1447 192L114.855 192C115.847 192 116.234 193.288 115.406 193.835L100.551 203.637Z" fill="#CECDCC"/>
</svg>
