<svg width="200" height="220" viewBox="0 0 200 220" fill="none" xmlns="http://www.w3.org/2000/svg">
<rect x="22" y="24" width="157" height="172" rx="52" fill="#EFEFEF"/>
<rect x="13" y="13" width="174" height="194" rx="39" stroke="#F5F3ED" stroke-width="26"/>
<rect x="22" y="23" width="157" height="175" rx="38" stroke="#DDDBD6" stroke-width="28"/>
<circle cx="100" cy="85" r="37" fill="#D9D9D9"/>
<path d="M99.5 110L131.976 166.25H67.024L99.5 110Z" fill="#D9D9D9"/>
<path d="M81.7614 87V83.1136C81.7614 82.0341 81.9716 80.9432 82.392 79.8409C82.8239 78.7273 83.3807 77.6932 84.0625 76.7386C84.7557 75.7727 85.4716 74.9773 86.2102 74.3523L89.7557 76.2955C89.142 77.2955 88.6534 78.3409 88.2898 79.4318C87.9261 80.5114 87.75 81.733 87.7614 83.0966V87H81.7614ZM114.714 87V83.1136C114.714 82.0341 114.925 80.9432 115.345 79.8409C115.777 78.7273 116.334 77.6932 117.016 76.7386C117.709 75.7727 118.425 74.9773 119.163 74.3523L122.709 76.2955C122.095 77.2955 121.607 78.3409 121.243 79.4318C120.879 80.5114 120.703 81.733 120.714 83.0966V87H114.714Z" fill="#EFEFEF"/>
<path d="M100.551 203.637C100.217 203.857 99.7833 203.857 99.4493 203.637L84.594 193.835C83.7661 193.288 84.1529 192 85.1447 192L114.855 192C115.847 192 116.234 193.288 115.406 193.835L100.551 203.637Z" fill="#CECDCC"/>
</svg>
