<svg width="200" height="220" viewBox="0 0 200 220" fill="none" xmlns="http://www.w3.org/2000/svg">
<rect x="22" y="24" width="157" height="172" rx="52" fill="#EFEFEF"/>
<rect x="13" y="13" width="174" height="194" rx="39" stroke="#F5F3ED" stroke-width="26"/>
<rect x="22" y="23" width="157" height="175" rx="38" stroke="#DDDBD6" stroke-width="28"/>
<path d="M100.551 203.637C100.217 203.857 99.7833 203.857 99.4493 203.637L84.594 193.835C83.7661 193.288 84.1529 192 85.1447 192L114.855 192C115.847 192 116.234 193.288 115.406 193.835L100.551 203.637Z" fill="#CECDCC"/>
<path d="M60 86V92V133.5C60 136.814 62.6863 139.5 66 139.5H134.5C137.814 139.5 140.5 136.814 140.5 133.5V98C140.5 94.6863 137.814 92 134.5 92H109.202C105.629 92 102.328 90.094 100.541 87L98.2321 83C97.1603 81.1436 95.1795 80 93.0359 80H66C62.6863 80 60 82.6863 60 86Z" stroke="#D9D9D9" stroke-width="6"/>
<path d="M151.428 88V94L141.605 134.901C140.957 137.598 138.545 139.5 135.771 139.5H67.6117C63.7312 139.5 60.8713 135.872 61.7776 132.099L69.8237 98.5988C70.4715 95.9015 72.8838 94 75.6578 94H102.227C105.799 94 109.1 92.094 110.887 89L113.196 85C114.268 83.1436 116.249 82 118.392 82H145.428C148.742 82 151.428 84.6863 151.428 88Z" fill="#EFEFEF" stroke="#D9D9D9" stroke-width="6"/>
</svg>
