<svg width="200" height="200" viewBox="0 0 200 200" fill="none" xmlns="http://www.w3.org/2000/svg">
<rect x="54" y="60" width="93" height="75" rx="37.5" fill="#8B8B8B"/>
<rect x="80" y="185" width="59" height="39" rx="19.5" transform="rotate(-90 80 185)" fill="#8B8B8B"/>
<path d="M135.337 53.4028C137.363 52.2948 139.829 53.7957 139.776 56.1045L139.374 73.4203C139.321 75.7291 136.788 77.1142 134.815 75.9134L120.02 66.9078C118.047 65.7071 118.114 62.8211 120.14 61.713L135.337 53.4028Z" fill="#8B8B8B"/>
<path d="M59.7639 55.6147C59.6932 53.3064 62.1477 51.787 64.1822 52.8799L79.4406 61.0763C81.4751 62.1691 81.5636 65.0545 79.5999 66.27L64.8724 75.386C62.9088 76.6014 60.3657 75.2354 60.2949 72.9271L59.7639 55.6147Z" fill="#8B8B8B"/>
<rect x="14" y="14" width="172" height="172" rx="38" stroke="#DDDBD6" stroke-width="28"/>
<path d="M57.5547 137.168C57.1849 137.723 56.8151 138.277 56.4453 138.832C56.8325 139.17 57.1888 139.518 57.4957 139.876C58.6239 141.078 58.699 142.607 59.6833 144.702C60.6139 146.686 61.9103 148.38 63.2389 149.921C68.9984 155.641 76.6662 155.217 83.0812 154.587C83.7058 154.501 84.256 154.43 85.0239 154.262C86.3377 154.017 87.4329 153.267 88.0393 152.085C88.6475 150.909 88.7171 149.398 88.2621 147.976C87.8072 146.554 86.8733 145.365 85.6953 144.76C84.5156 144.15 83.1883 144.175 81.9761 144.738C81.9761 144.738 81.9761 144.738 81.9761 144.738C81.7491 144.878 81.2203 145.092 80.8106 145.259C76.0477 147.118 70.3231 148.284 66.7611 146.079C65.3113 145.064 63.9761 143.99 62.9377 142.728C61.9446 141.631 60.9903 139.281 59.0798 138.073C58.579 137.722 58.0701 137.432 57.5547 137.168Z" fill="#8B8B8B"/>
</svg>
